<svg xmlns="http://www.w3.org/2000/svg" width="340" height="200" viewBox="0 0 340 200"><style>* {
          font-family: 'Segoe UI', Ubuntu, "Helvetica Neue", Sans-Serif
        }</style><g class="gpsc-root"><rect x="1" y="1" rx="5" ry="5" height="99%" width="99.41176470588235%" stroke="#000000" stroke-width="1" fill="#262626" stroke-opacity="0"></rect><text x="30" y="40" class="gpsc-item" style="--gpsc-i: 0; font-size: 22px; fill: #ffffff;">Top Languages by Commit</text><g transform="translate(0,40)"><g transform="translate(40,0)"><rect y="18" width="14" height="14" class="gpsc-item" style="--gpsc-i: 0; stroke-width: 1px;" fill="#A97BFF" stroke="#262626"></rect><rect y="43.2" width="14" height="14" class="gpsc-item" style="--gpsc-i: 1; stroke-width: 1px;" fill="#f34b7d" stroke="#262626"></rect><rect y="68.4" width="14" height="14" class="gpsc-item" style="--gpsc-i: 2; stroke-width: 1px;" fill="#3178c6" stroke="#262626"></rect><rect y="93.60000000000002" width="14" height="14" class="gpsc-item" style="--gpsc-i: 3; stroke-width: 1px;" fill="#89e051" stroke="#262626"></rect><rect y="118.80000000000001" width="14" height="14" class="gpsc-item" style="--gpsc-i: 4; stroke-width: 1px;" fill="#41b883" stroke="#262626"></rect><text x="16.8" y="30" class="gpsc-item" style="--gpsc-i: 0; fill: #bcbcbc; font-size: 14px;">Kotlin</text><text x="16.8" y="55.2" class="gpsc-item" style="--gpsc-i: 1; fill: #bcbcbc; font-size: 14px;">C++</text><text x="16.8" y="80.4" class="gpsc-item" style="--gpsc-i: 2; fill: #bcbcbc; font-size: 14px;">TypeScript</text><text x="16.8" y="105.60000000000002" class="gpsc-item" style="--gpsc-i: 3; fill: #bcbcbc; font-size: 14px;">Shell</text><text x="16.8" y="130.8" class="gpsc-item" style="--gpsc-i: 4; fill: #bcbcbc; font-size: 14px;">Vue</text></g><g transform="translate( 230, 80 )"><g class="arc" style="--gpsc-i: 0;"><path d="M3.67394039744206e-15,-60A60,60,0,1,1,-7.8228124047692535,59.48784418752951L-4.5633072361153975,34.70124244272555A35,35,0,1,0,2.1431318985078682e-15,-35Z" style="fill: #A97BFF; stroke-width: 2px;" stroke="#262626"></path></g><g class="arc" style="--gpsc-i: 1;"><path d="M-7.8228124047692535,59.48784418752951A60,60,0,0,1,-58.84970071360101,11.692421730316996L-34.32899208293392,6.820579342684915A35,35,0,0,0,-4.5633072361153975,34.70124244272555Z" style="fill: #f34b7d; stroke-width: 2px;" stroke="#262626"></path></g><g class="arc" style="--gpsc-i: 2;"><path d="M-58.84970071360101,11.692421730316996A60,60,0,0,1,-51.6045424379579,-30.609985295145144L-30.102649755475444,-17.855824755501335A35,35,0,0,0,-34.32899208293392,6.820579342684915Z" style="fill: #3178c6; stroke-width: 2px;" stroke="#262626"></path></g><g class="arc" style="--gpsc-i: 3;"><path d="M-51.6045424379579,-30.609985295145144A60,60,0,0,1,-22.150544285373634,-55.761576267728486L-12.92115083313462,-32.527586156174955A35,35,0,0,0,-30.102649755475444,-17.855824755501335Z" style="fill: #89e051; stroke-width: 2px;" stroke="#262626"></path></g><g class="arc" style="--gpsc-i: 4;"><path d="M-22.150544285373634,-55.761576267728486A60,60,0,0,1,-1.1021821192326178e-14,-60L-6.429395695523604e-15,-35A35,35,0,0,0,-12.92115083313462,-32.527586156174955Z" style="fill: #41b883; stroke-width: 2px;" stroke="#262626"></path></g></g></g></g></svg>