<svg xmlns="http://www.w3.org/2000/svg" width="340" height="200" viewBox="0 0 340 200"><style>* {
          font-family: 'Segoe UI', Ubuntu, "Helvetica Neue", Sans-Serif
        }</style><rect x="1" y="1" rx="5" ry="5" height="99%" width="99.41176470588235%" stroke="#000000" stroke-width="1" fill="#262626" stroke-opacity="0"></rect><text x="30" y="40" style="font-size: 22px; fill: #ffffff;">Top Languages by Commit</text><g transform="translate(0,40)"><g transform="translate(40,0)"><rect y="18" width="14" height="14" fill="#89e051" stroke="#262626" style="stroke-width: 1px;"></rect><rect y="43.2" width="14" height="14" fill="#f1e05a" stroke="#262626" style="stroke-width: 1px;"></rect><rect y="68.4" width="14" height="14" fill="#555555" stroke="#262626" style="stroke-width: 1px;"></rect><rect y="93.60000000000002" width="14" height="14" fill="#663399" stroke="#262626" style="stroke-width: 1px;"></rect><rect y="118.80000000000001" width="14" height="14" fill="#3572A5" stroke="#262626" style="stroke-width: 1px;"></rect><text x="16.8" y="30" style="fill: #bcbcbc; font-size: 14px;">Shell</text><text x="16.8" y="55.2" style="fill: #bcbcbc; font-size: 14px;">JavaScript</text><text x="16.8" y="80.4" style="fill: #bcbcbc; font-size: 14px;">C</text><text x="16.8" y="105.60000000000002" style="fill: #bcbcbc; font-size: 14px;">CSS</text><text x="16.8" y="130.8" style="fill: #bcbcbc; font-size: 14px;">Python</text></g><g transform="translate( 230, 80 )"><g class="arc"><path d="M3.67394039744206e-15,-60A60,60,0,0,1,54.67663163212507,24.707609219932635L31.89470178540629,14.412772044960704A35,35,0,0,0,2.1431318985078682e-15,-35Z" style="fill: #89e051; stroke-width: 2px;" stroke="#262626"></path></g><g class="arc"><path d="M54.67663163212507,24.707609219932635A60,60,0,0,1,-28.702557751856695,52.68930800932321L-16.743158688583073,30.73542967210521A35,35,0,0,0,31.89470178540629,14.412772044960704Z" style="fill: #f1e05a; stroke-width: 2px;" stroke="#262626"></path></g><g class="arc"><path d="M-28.702557751856695,52.68930800932321A60,60,0,0,1,-59.037114177387615,10.70603332733921L-34.43831660347611,6.245186107614539A35,35,0,0,0,-16.743158688583073,30.73542967210521Z" style="fill: #555555; stroke-width: 2px;" stroke="#262626"></path></g><g class="arc"><path d="M-59.037114177387615,10.70603332733921A60,60,0,0,1,-46.056280785797064,-38.45541574576747L-26.866163791714953,-22.43232585169769A35,35,0,0,0,-34.43831660347611,6.245186107614539Z" style="fill: #663399; stroke-width: 2px;" stroke="#262626"></path></g><g class="arc"><path d="M-46.056280785797064,-38.45541574576747A60,60,0,0,1,-1.1760323155634122e-13,-60L-6.860188507453237e-14,-35A35,35,0,0,0,-26.866163791714953,-22.43232585169769Z" style="fill: #3572A5; stroke-width: 2px;" stroke="#262626"></path></g></g></g></svg>