<svg xmlns="http://www.w3.org/2000/svg" width="340" height="200" viewBox="0 0 340 200"><style>* {
          font-family: 'Segoe UI', Ubuntu, "Helvetica Neue", Sans-Serif
        }</style><rect x="1" y="1" rx="5" ry="5" height="99%" width="99.41176470588235%" stroke="#2c292d" stroke-width="1" fill="#2c292d" stroke-opacity="1"></rect><text x="30" y="40" style="font-size: 22px; fill: #eb1f6a;">Top Languages by Commit</text><g transform="translate(0,40)"><g transform="translate(40,0)"><rect y="18" width="14" height="14" fill="#89e051" stroke="#2c292d" style="stroke-width: 1px;"></rect><rect y="43.2" width="14" height="14" fill="#41b883" stroke="#2c292d" style="stroke-width: 1px;"></rect><rect y="68.4" width="14" height="14" fill="#f1e05a" stroke="#2c292d" style="stroke-width: 1px;"></rect><rect y="93.60000000000002" width="14" height="14" fill="#384d54" stroke="#2c292d" style="stroke-width: 1px;"></rect><rect y="118.80000000000001" width="14" height="14" fill="#3572A5" stroke="#2c292d" style="stroke-width: 1px;"></rect><text x="16.8" y="30" style="fill: #ffffff; font-size: 14px;">Shell</text><text x="16.8" y="55.2" style="fill: #ffffff; font-size: 14px;">Vue</text><text x="16.8" y="80.4" style="fill: #ffffff; font-size: 14px;">JavaScript</text><text x="16.8" y="105.60000000000002" style="fill: #ffffff; font-size: 14px;">Dockerfile</text><text x="16.8" y="130.8" style="fill: #ffffff; font-size: 14px;">Python</text></g><g transform="translate( 230, 80 )"><g class="arc"><path d="M3.67394039744206e-15,-60A60,60,0,0,1,58.18408905804263,14.649634141703487L33.940718617191536,8.5456199159937A35,35,0,0,0,2.1431318985078682e-15,-35Z" style="fill: #89e051; stroke-width: 2px;" stroke="#2c292d"></path></g><g class="arc"><path d="M58.18408905804263,14.649634141703487A60,60,0,0,1,-15.904996255084395,57.85353138854837L-9.277914482132564,33.747893309986544A35,35,0,0,0,33.940718617191536,8.5456199159937Z" style="fill: #41b883; stroke-width: 2px;" stroke="#2c292d"></path></g><g class="arc"><path d="M-15.904996255084395,57.85353138854837A60,60,0,0,1,-59.64924475014746,6.478240558747837L-34.79539277091935,3.7789736592695715A35,35,0,0,0,-9.277914482132564,33.747893309986544Z" style="fill: #f1e05a; stroke-width: 2px;" stroke="#2c292d"></path></g><g class="arc"><path d="M-59.64924475014746,6.478240558747837A60,60,0,0,1,-42.88289081863458,-41.96495770326793L-25.015019644203505,-24.479558660239626A35,35,0,0,0,-34.79539277091935,3.7789736592695715Z" style="fill: #384d54; stroke-width: 2px;" stroke="#2c292d"></path></g><g class="arc"><path d="M-42.88289081863458,-41.96495770326793A60,60,0,0,1,4.226888398968133e-14,-60L2.4656848993980778e-14,-35A35,35,0,0,0,-25.015019644203505,-24.479558660239626Z" style="fill: #3572A5; stroke-width: 2px;" stroke="#2c292d"></path></g></g></g></svg>