<svg xmlns="http://www.w3.org/2000/svg" width="340" height="200" viewBox="0 0 340 200"><style>* {
          font-family: 'Segoe UI', Ubuntu, "Helvetica Neue", Sans-Serif
        }</style><rect x="1" y="1" rx="5" ry="5" height="99%" width="99.41176470588235%" stroke="#000000" stroke-width="1" fill="#ffffff" stroke-opacity="0"></rect><text x="30" y="40" style="font-size: 22px; fill: #7957d5;">Top Languages by Commit</text><g transform="translate(0,40)"><g transform="translate(40,0)"><rect y="18" width="14" height="14" fill="#89e051" stroke="#ffffff" style="stroke-width: 1px;"></rect><rect y="43.2" width="14" height="14" fill="#41b883" stroke="#ffffff" style="stroke-width: 1px;"></rect><rect y="68.4" width="14" height="14" fill="#663399" stroke="#ffffff" style="stroke-width: 1px;"></rect><rect y="93.60000000000002" width="14" height="14" fill="#f1e05a" stroke="#ffffff" style="stroke-width: 1px;"></rect><rect y="118.80000000000001" width="14" height="14" fill="#384d54" stroke="#ffffff" style="stroke-width: 1px;"></rect><text x="16.8" y="30" style="fill: #363636; font-size: 14px;">Shell</text><text x="16.8" y="55.2" style="fill: #363636; font-size: 14px;">Vue</text><text x="16.8" y="80.4" style="fill: #363636; font-size: 14px;">CSS</text><text x="16.8" y="105.60000000000002" style="fill: #363636; font-size: 14px;">JavaScript</text><text x="16.8" y="130.8" style="fill: #363636; font-size: 14px;">Dockerfile</text></g><g transform="translate( 230, 80 )"><g class="arc"><path d="M3.67394039744206e-15,-60A60,60,0,0,1,59.65095460924038,6.46247740470665L34.79639018872356,3.7697784860788794A35,35,0,0,0,2.1431318985078682e-15,-35Z" style="fill: #89e051; stroke-width: 2px;" stroke="#ffffff"></path></g><g class="arc"><path d="M59.65095460924038,6.46247740470665A60,60,0,0,1,-0.4796273579652716,59.9980829493534L-0.2797826254797418,34.99888172045615A35,35,0,0,0,34.79639018872356,3.7697784860788794Z" style="fill: #41b883; stroke-width: 2px;" stroke="#ffffff"></path></g><g class="arc"><path d="M-0.4796273579652716,59.9980829493534A60,60,0,0,1,-56.4088478596582,20.44607256041937L-32.905161251467284,11.926875660244631A35,35,0,0,0,-0.2797826254797418,34.99888172045615Z" style="fill: #663399; stroke-width: 2px;" stroke="#ffffff"></path></g><g class="arc"><path d="M-56.4088478596582,20.44607256041937A60,60,0,0,1,-43.678972804428106,-41.13571847859266L-25.47940080258306,-23.995835779179053A35,35,0,0,0,-32.905161251467284,11.926875660244631Z" style="fill: #f1e05a; stroke-width: 2px;" stroke="#ffffff"></path></g><g class="arc"><path d="M-43.678972804428106,-41.13571847859266A60,60,0,0,1,-1.1021821192326178e-14,-60L-6.429395695523604e-15,-35A35,35,0,0,0,-25.47940080258306,-23.995835779179053Z" style="fill: #384d54; stroke-width: 2px;" stroke="#ffffff"></path></g></g></g></svg>