<svg xmlns="http://www.w3.org/2000/svg" width="340" height="200" viewBox="0 0 340 200"><style>* {
          font-family: 'Segoe UI', Ubuntu, "Helvetica Neue", Sans-Serif
        }</style><rect x="1" y="1" rx="5" ry="5" height="99%" width="99.41176470588235%" stroke="#0c1a25" stroke-width="1" fill="#09131b" stroke-opacity="1"></rect><text x="30" y="40" style="font-size: 22px; fill: #ff652f;">Top Languages by Commit</text><g transform="translate(0,40)"><g transform="translate(40,0)"><rect y="18" width="14" height="14" fill="#89e051" stroke="#09131b" style="stroke-width: 1px;"></rect><rect y="43.2" width="14" height="14" fill="#41b883" stroke="#09131b" style="stroke-width: 1px;"></rect><rect y="68.4" width="14" height="14" fill="#f1e05a" stroke="#09131b" style="stroke-width: 1px;"></rect><rect y="93.60000000000002" width="14" height="14" fill="#663399" stroke="#09131b" style="stroke-width: 1px;"></rect><rect y="118.80000000000001" width="14" height="14" fill="#384d54" stroke="#09131b" style="stroke-width: 1px;"></rect><text x="16.8" y="30" style="fill: #ffffff; font-size: 14px;">Shell</text><text x="16.8" y="55.2" style="fill: #ffffff; font-size: 14px;">Vue</text><text x="16.8" y="80.4" style="fill: #ffffff; font-size: 14px;">JavaScript</text><text x="16.8" y="105.60000000000002" style="fill: #ffffff; font-size: 14px;">CSS</text><text x="16.8" y="130.8" style="fill: #ffffff; font-size: 14px;">Dockerfile</text></g><g transform="translate( 230, 80 )"><g class="arc"><path d="M3.67394039744206e-15,-60A60,60,0,0,1,58.17030371472874,14.704277123892068L33.932677166925096,8.57749498893704A35,35,0,0,0,2.1431318985078682e-15,-35Z" style="fill: #89e051; stroke-width: 2px;" stroke="#09131b"></path></g><g class="arc"><path d="M58.17030371472874,14.704277123892068A60,60,0,0,1,-10.178971013777074,59.13026762243416L-5.93773309136996,34.492656113086596A35,35,0,0,0,33.932677166925096,8.57749498893704Z" style="fill: #41b883; stroke-width: 2px;" stroke="#09131b"></path></g><g class="arc"><path d="M-10.178971013777074,59.13026762243416A60,60,0,0,1,-57.66225732307839,16.585055936206295L-33.636316771795734,9.674615962787005A35,35,0,0,0,-5.93773309136996,34.492656113086596Z" style="fill: #f1e05a; stroke-width: 2px;" stroke="#09131b"></path></g><g class="arc"><path d="M-57.66225732307839,16.585055936206295A60,60,0,0,1,-44.19548509163064,-40.580279662854146L-25.78069963678454,-23.671829803331587A35,35,0,0,0,-33.636316771795734,9.674615962787005Z" style="fill: #663399; stroke-width: 2px;" stroke="#09131b"></path></g><g class="arc"><path d="M-44.19548509163064,-40.580279662854146A60,60,0,0,1,-1.1021821192326178e-14,-60L-6.429395695523604e-15,-35A35,35,0,0,0,-25.78069963678454,-23.671829803331587Z" style="fill: #384d54; stroke-width: 2px;" stroke="#09131b"></path></g></g></g></svg>