<svg xmlns="http://www.w3.org/2000/svg" width="340" height="200" viewBox="0 0 340 200"><style>* {
          font-family: 'Segoe UI', Ubuntu, "Helvetica Neue", Sans-Serif
        }</style><rect x="1" y="1" rx="5" ry="5" height="99%" width="99.41176470588235%" stroke="#000000" stroke-width="1" fill="#15141b" stroke-opacity="0"></rect><text x="30" y="40" style="font-size: 22px; fill: #a277ff;">Top Languages by Commit</text><g transform="translate(0,40)"><g transform="translate(40,0)"><rect y="18" width="14" height="14" fill="#f34b7d" stroke="#15141b" style="stroke-width: 1px;"></rect><rect y="43.2" width="14" height="14" fill="#3178c6" stroke="#15141b" style="stroke-width: 1px;"></rect><rect y="68.4" width="14" height="14" fill="#555555" stroke="#15141b" style="stroke-width: 1px;"></rect><rect y="93.60000000000002" width="14" height="14" fill="#89e051" stroke="#15141b" style="stroke-width: 1px;"></rect><rect y="118.80000000000001" width="14" height="14" fill="#41b883" stroke="#15141b" style="stroke-width: 1px;"></rect><text x="16.8" y="30" style="fill: #61ffca; font-size: 14px;">C++</text><text x="16.8" y="55.2" style="fill: #61ffca; font-size: 14px;">TypeScript</text><text x="16.8" y="80.4" style="fill: #61ffca; font-size: 14px;">C</text><text x="16.8" y="105.60000000000002" style="fill: #61ffca; font-size: 14px;">Shell</text><text x="16.8" y="130.8" style="fill: #61ffca; font-size: 14px;">Vue</text></g><g transform="translate( 230, 80 )"><g class="arc"><path d="M3.67394039744206e-15,-60A60,60,0,0,1,16.46322811257356,57.69715868319139L9.603549732334576,33.656675898528306A35,35,0,0,0,2.1431318985078682e-15,-35Z" style="fill: #f34b7d; stroke-width: 2px;" stroke="#15141b"></path></g><g class="arc"><path d="M16.46322811257356,57.69715868319139A60,60,0,0,1,-59.31024159658685,9.071672489375862L-34.59764093134233,5.29180895213592A35,35,0,0,0,9.603549732334576,33.656675898528306Z" style="fill: #3178c6; stroke-width: 2px;" stroke="#15141b"></path></g><g class="arc"><path d="M-59.31024159658685,9.071672489375862A60,60,0,0,1,-46.71379796596354,-37.65396499168634L-27.2497154801454,-21.964812911817027A35,35,0,0,0,-34.59764093134233,5.29180895213592Z" style="fill: #555555; stroke-width: 2px;" stroke="#15141b"></path></g><g class="arc"><path d="M-46.71379796596354,-37.65396499168634A60,60,0,0,1,-22.071150098241016,-55.79304914898374L-12.87483755730726,-32.54594533690718A35,35,0,0,0,-27.2497154801454,-21.964812911817027Z" style="fill: #89e051; stroke-width: 2px;" stroke="#15141b"></path></g><g class="arc"><path d="M-22.071150098241016,-55.79304914898374A60,60,0,0,1,4.226888398968133e-14,-60L2.4656848993980778e-14,-35A35,35,0,0,0,-12.87483755730726,-32.54594533690718Z" style="fill: #41b883; stroke-width: 2px;" stroke="#15141b"></path></g></g></g></svg>