<svg xmlns="http://www.w3.org/2000/svg" width="340" height="200" viewBox="0 0 340 200"><style>* {
          font-family: 'Segoe UI', Ubuntu, "Helvetica Neue", Sans-Serif
        }</style><rect x="1" y="1" rx="5" ry="5" height="99%" width="99.41176470588235%" stroke="#000000" stroke-width="1" fill="#172f45" stroke-opacity="0"></rect><text x="30" y="40" style="font-size: 22px; fill: #bddfff;">Top Languages by Commit</text><g transform="translate(0,40)"><g transform="translate(40,0)"><rect y="18" width="14" height="14" fill="#89e051" stroke="#172f45" style="stroke-width: 1px;"></rect><rect y="43.2" width="14" height="14" fill="#41b883" stroke="#172f45" style="stroke-width: 1px;"></rect><rect y="68.4" width="14" height="14" fill="#663399" stroke="#172f45" style="stroke-width: 1px;"></rect><rect y="93.60000000000002" width="14" height="14" fill="#f1e05a" stroke="#172f45" style="stroke-width: 1px;"></rect><rect y="118.80000000000001" width="14" height="14" fill="#384d54" stroke="#172f45" style="stroke-width: 1px;"></rect><text x="16.8" y="30" style="fill: #6e93b5; font-size: 14px;">Shell</text><text x="16.8" y="55.2" style="fill: #6e93b5; font-size: 14px;">Vue</text><text x="16.8" y="80.4" style="fill: #6e93b5; font-size: 14px;">CSS</text><text x="16.8" y="105.60000000000002" style="fill: #6e93b5; font-size: 14px;">JavaScript</text><text x="16.8" y="130.8" style="fill: #6e93b5; font-size: 14px;">Dockerfile</text></g><g transform="translate( 230, 80 )"><g class="arc"><path d="M3.67394039744206e-15,-60A60,60,0,0,1,59.4972060735855,7.751288243724384L34.70670354292488,4.521584808839225A35,35,0,0,0,2.1431318985078682e-15,-35Z" style="fill: #89e051; stroke-width: 2px;" stroke="#172f45"></path></g><g class="arc"><path d="M59.4972060735855,7.751288243724384A60,60,0,0,1,-2.913733326866917,59.92920955677544L-1.6996777740057016,34.958705574785675A35,35,0,0,0,34.70670354292488,4.521584808839225Z" style="fill: #41b883; stroke-width: 2px;" stroke="#172f45"></path></g><g class="arc"><path d="M-2.913733326866917,59.92920955677544A60,60,0,0,1,-55.886165628650545,21.83429621780924L-32.60026328337948,12.736672793722056A35,35,0,0,0,-1.6996777740057016,34.958705574785675Z" style="fill: #663399; stroke-width: 2px;" stroke="#172f45"></path></g><g class="arc"><path d="M-55.886165628650545,21.83429621780924A60,60,0,0,1,-44.10878362243202,-40.67450316045019L-25.730123779752013,-23.726793510262613A35,35,0,0,0,-32.60026328337948,12.736672793722056Z" style="fill: #f1e05a; stroke-width: 2px;" stroke="#172f45"></path></g><g class="arc"><path d="M-44.10878362243202,-40.67450316045019A60,60,0,0,1,-1.1021821192326178e-14,-60L-6.429395695523604e-15,-35A35,35,0,0,0,-25.730123779752013,-23.726793510262613Z" style="fill: #384d54; stroke-width: 2px;" stroke="#172f45"></path></g></g></g></svg>