<svg xmlns="http://www.w3.org/2000/svg" width="340" height="200" viewBox="0 0 340 200"><style>* {
          font-family: 'Segoe UI', Ubuntu, "Helvetica Neue", Sans-Serif
        }</style><rect x="1" y="1" rx="5" ry="5" height="99%" width="99.41176470588235%" stroke="#eceff4" stroke-width="1" fill="#2e3440" stroke-opacity="1"></rect><text x="30" y="40" style="font-size: 22px; fill: #eceff4;">Top Languages by Commit</text><g transform="translate(0,40)"><g transform="translate(40,0)"><rect y="18" width="14" height="14" fill="#89e051" stroke="#2e3440" style="stroke-width: 1px;"></rect><rect y="43.2" width="14" height="14" fill="#41b883" stroke="#2e3440" style="stroke-width: 1px;"></rect><rect y="68.4" width="14" height="14" fill="#f1e05a" stroke="#2e3440" style="stroke-width: 1px;"></rect><rect y="93.60000000000002" width="14" height="14" fill="#384d54" stroke="#2e3440" style="stroke-width: 1px;"></rect><rect y="118.80000000000001" width="14" height="14" fill="#3572A5" stroke="#2e3440" style="stroke-width: 1px;"></rect><text x="16.8" y="30" style="fill: #e5e9f0; font-size: 14px;">Shell</text><text x="16.8" y="55.2" style="fill: #e5e9f0; font-size: 14px;">Vue</text><text x="16.8" y="80.4" style="fill: #e5e9f0; font-size: 14px;">JavaScript</text><text x="16.8" y="105.60000000000002" style="fill: #e5e9f0; font-size: 14px;">Dockerfile</text><text x="16.8" y="130.8" style="fill: #e5e9f0; font-size: 14px;">Python</text></g><g transform="translate( 230, 80 )"><g class="arc"><path d="M3.67394039744206e-15,-60A60,60,0,0,1,56.26512792882483,20.838315170689214L32.82132462514782,12.155683849568709A35,35,0,0,0,2.1431318985078682e-15,-35Z" style="fill: #89e051; stroke-width: 2px;" stroke="#2e3440"></path></g><g class="arc"><path d="M56.26512792882483,20.838315170689214A60,60,0,0,1,-19.885054093118157,56.60905072259881L-11.599614887652258,33.021946254849304A35,35,0,0,0,32.82132462514782,12.155683849568709Z" style="fill: #41b883; stroke-width: 2px;" stroke="#2e3440"></path></g><g class="arc"><path d="M-19.885054093118157,56.60905072259881A60,60,0,0,1,-59.86311688080424,4.050584811501907L-34.92015151380247,2.3628411400427796A35,35,0,0,0,-11.599614887652258,33.021946254849304Z" style="fill: #f1e05a; stroke-width: 2px;" stroke="#2e3440"></path></g><g class="arc"><path d="M-59.86311688080424,4.050584811501907A60,60,0,0,1,-42.06660119352317,-42.78318669787321L-24.538850696221846,-24.95685890709271A35,35,0,0,0,-34.92015151380247,2.3628411400427796Z" style="fill: #384d54; stroke-width: 2px;" stroke="#2e3440"></path></g><g class="arc"><path d="M-42.06660119352317,-42.78318669787321A60,60,0,0,1,-1.1021821192326178e-14,-60L-6.429395695523604e-15,-35A35,35,0,0,0,-24.538850696221846,-24.95685890709271Z" style="fill: #3572A5; stroke-width: 2px;" stroke="#2e3440"></path></g></g></g></svg>