<svg xmlns="http://www.w3.org/2000/svg" width="340" height="200" viewBox="0 0 340 200"><style>* {
          font-family: 'Segoe UI', Ubuntu, "Helvetica Neue", Sans-Serif
        }</style><rect x="1" y="1" rx="5" ry="5" height="99%" width="99.41176470588235%" stroke="#fdf6e3" stroke-width="1" fill="#fdf6e3" stroke-opacity="1"></rect><text x="30" y="40" style="font-size: 22px; fill: #268bd2;">Top Languages by Commit</text><g transform="translate(0,40)"><g transform="translate(40,0)"><rect y="18" width="14" height="14" fill="#89e051" stroke="#fdf6e3" style="stroke-width: 1px;"></rect><rect y="43.2" width="14" height="14" fill="#f1e05a" stroke="#fdf6e3" style="stroke-width: 1px;"></rect><rect y="68.4" width="14" height="14" fill="#555555" stroke="#fdf6e3" style="stroke-width: 1px;"></rect><rect y="93.60000000000002" width="14" height="14" fill="#3572A5" stroke="#fdf6e3" style="stroke-width: 1px;"></rect><rect y="118.80000000000001" width="14" height="14" fill="#663399" stroke="#fdf6e3" style="stroke-width: 1px;"></rect><text x="16.8" y="30" style="fill: #586e75; font-size: 14px;">Shell</text><text x="16.8" y="55.2" style="fill: #586e75; font-size: 14px;">JavaScript</text><text x="16.8" y="80.4" style="fill: #586e75; font-size: 14px;">C</text><text x="16.8" y="105.60000000000002" style="fill: #586e75; font-size: 14px;">Python</text><text x="16.8" y="130.8" style="fill: #586e75; font-size: 14px;">CSS</text></g><g transform="translate( 230, 80 )"><g class="arc"><path d="M3.67394039744206e-15,-60A60,60,0,0,1,49.74932980804318,33.541082028618966L29.020442388025188,19.565631183361063A35,35,0,0,0,2.1431318985078682e-15,-35Z" style="fill: #89e051; stroke-width: 2px;" stroke="#fdf6e3"></path></g><g class="arc"><path d="M49.74932980804318,33.541082028618966A60,60,0,0,1,-17.400050129633755,57.42158353342611L-10.150029242286356,33.4959237278319A35,35,0,0,0,29.020442388025188,19.565631183361063Z" style="fill: #f1e05a; stroke-width: 2px;" stroke="#fdf6e3"></path></g><g class="arc"><path d="M-17.400050129633755,57.42158353342611A60,60,0,0,1,-57.16805122688692,18.215760179581665L-33.3480298823507,10.62586010475597A35,35,0,0,0,-10.150029242286356,33.4959237278319Z" style="fill: #555555; stroke-width: 2px;" stroke="#fdf6e3"></path></g><g class="arc"><path d="M-57.16805122688692,18.215760179581665A60,60,0,0,1,-48.10218962213463,-35.86334275491067L-28.059610612911868,-20.92028327369789A35,35,0,0,0,-33.3480298823507,10.62586010475597Z" style="fill: #3572A5; stroke-width: 2px;" stroke="#fdf6e3"></path></g><g class="arc"><path d="M-48.10218962213463,-35.86334275491067A60,60,0,0,1,-1.1021821192326178e-14,-60L-6.429395695523604e-15,-35A35,35,0,0,0,-28.059610612911868,-20.92028327369789Z" style="fill: #663399; stroke-width: 2px;" stroke="#fdf6e3"></path></g></g></g></svg>