<svg xmlns="http://www.w3.org/2000/svg" width="340" height="200" viewBox="0 0 340 200"><style>* {
          font-family: 'Segoe UI', Ubuntu, "Helvetica Neue", Sans-Serif
        }</style><rect x="1" y="1" rx="5" ry="5" height="99%" width="99.41176470588235%" stroke="#000000" stroke-width="1" fill="#1f2023" stroke-opacity="0"></rect><text x="30" y="40" style="font-size: 22px; fill: #e03c8a;">Top Languages by Commit</text><g transform="translate(0,40)"><g transform="translate(40,0)"><rect y="18" width="14" height="14" fill="#89e051" stroke="#1f2023" style="stroke-width: 1px;"></rect><rect y="43.2" width="14" height="14" fill="#41b883" stroke="#1f2023" style="stroke-width: 1px;"></rect><rect y="68.4" width="14" height="14" fill="#f1e05a" stroke="#1f2023" style="stroke-width: 1px;"></rect><rect y="93.60000000000002" width="14" height="14" fill="#663399" stroke="#1f2023" style="stroke-width: 1px;"></rect><rect y="118.80000000000001" width="14" height="14" fill="#555555" stroke="#1f2023" style="stroke-width: 1px;"></rect><text x="16.8" y="30" style="fill: #bcb28d; font-size: 14px;">Shell</text><text x="16.8" y="55.2" style="fill: #bcb28d; font-size: 14px;">Vue</text><text x="16.8" y="80.4" style="fill: #bcb28d; font-size: 14px;">JavaScript</text><text x="16.8" y="105.60000000000002" style="fill: #bcb28d; font-size: 14px;">CSS</text><text x="16.8" y="130.8" style="fill: #bcb28d; font-size: 14px;">C</text></g><g transform="translate( 230, 80 )"><g class="arc"><path d="M3.67394039744206e-15,-60A60,60,0,0,1,56.970471891601726,18.82459381894381L33.23277527010101,10.981013061050557A35,35,0,0,0,2.1431318985078682e-15,-35Z" style="fill: #89e051; stroke-width: 2px;" stroke="#1f2023"></path></g><g class="arc"><path d="M56.970471891601726,18.82459381894381A60,60,0,0,1,-16.2086272473392,57.76919942977238L-9.455032560947869,33.69869966736722A35,35,0,0,0,33.23277527010101,10.981013061050557Z" style="fill: #41b883; stroke-width: 2px;" stroke="#1f2023"></path></g><g class="arc"><path d="M-16.2086272473392,57.76919942977238A60,60,0,0,1,-57.83588104536334,15.969059574896132L-33.73759727646195,9.315284752022745A35,35,0,0,0,-9.455032560947869,33.69869966736722Z" style="fill: #f1e05a; stroke-width: 2px;" stroke="#1f2023"></path></g><g class="arc"><path d="M-57.83588104536334,15.969059574896132A60,60,0,0,1,-44.89795784286832,-39.80167561221536L-26.190475408339854,-23.21764410712563A35,35,0,0,0,-33.73759727646195,9.315284752022745Z" style="fill: #663399; stroke-width: 2px;" stroke="#1f2023"></path></g><g class="arc"><path d="M-44.89795784286832,-39.80167561221536A60,60,0,0,1,-1.1021821192326178e-14,-60L-6.429395695523604e-15,-35A35,35,0,0,0,-26.190475408339854,-23.21764410712563Z" style="fill: #555555; stroke-width: 2px;" stroke="#1f2023"></path></g></g></g></svg>