<svg xmlns="http://www.w3.org/2000/svg" width="340" height="200" viewBox="0 0 340 200"><style>* {
          font-family: 'Segoe UI', Ubuntu, "Helvetica Neue", Sans-Serif
        }</style><rect x="1" y="1" rx="5" ry="5" height="99%" width="99.41176470588235%" stroke="#000000" stroke-width="1" fill="#2d2b55" stroke-opacity="0"></rect><text x="30" y="40" style="font-size: 22px; fill: #fad000;">Top Languages by Commit</text><g transform="translate(0,40)"><g transform="translate(40,0)"><rect y="18" width="14" height="14" fill="#f34b7d" stroke="#2d2b55" style="stroke-width: 1px;"></rect><rect y="43.2" width="14" height="14" fill="#3178c6" stroke="#2d2b55" style="stroke-width: 1px;"></rect><rect y="68.4" width="14" height="14" fill="#555555" stroke="#2d2b55" style="stroke-width: 1px;"></rect><rect y="93.60000000000002" width="14" height="14" fill="#89e051" stroke="#2d2b55" style="stroke-width: 1px;"></rect><rect y="118.80000000000001" width="14" height="14" fill="#41b883" stroke="#2d2b55" style="stroke-width: 1px;"></rect><text x="16.8" y="30" style="fill: #a599e9; font-size: 14px;">C++</text><text x="16.8" y="55.2" style="fill: #a599e9; font-size: 14px;">TypeScript</text><text x="16.8" y="80.4" style="fill: #a599e9; font-size: 14px;">C</text><text x="16.8" y="105.60000000000002" style="fill: #a599e9; font-size: 14px;">Shell</text><text x="16.8" y="130.8" style="fill: #a599e9; font-size: 14px;">Vue</text></g><g transform="translate( 230, 80 )"><g class="arc"><path d="M3.67394039744206e-15,-60A60,60,0,0,1,27.091212978636534,53.535653347523045L15.803207570871312,31.22913111938844A35,35,0,0,0,2.1431318985078682e-15,-35Z" style="fill: #f34b7d; stroke-width: 2px;" stroke="#2d2b55"></path></g><g class="arc"><path d="M27.091212978636534,53.535653347523045A60,60,0,0,1,-53.19025127868179,27.76323412195867L-31.027646579231046,16.19521990447589A35,35,0,0,0,15.803207570871312,31.22913111938844Z" style="fill: #3178c6; stroke-width: 2px;" stroke="#2d2b55"></path></g><g class="arc"><path d="M-53.19025127868179,27.76323412195867A60,60,0,0,1,-43.42930880040977,-41.399216624456194L-25.333763466905697,-24.149543030932783A35,35,0,0,0,-31.027646579231046,16.19521990447589Z" style="fill: #555555; stroke-width: 2px;" stroke="#2d2b55"></path></g><g class="arc"><path d="M-43.42930880040977,-41.399216624456194A60,60,0,0,1,-19.772587673078068,-56.64843137025456L-11.534009475962206,-33.044918299315164A35,35,0,0,0,-25.333763466905697,-24.149543030932783Z" style="fill: #89e051; stroke-width: 2px;" stroke="#2d2b55"></path></g><g class="arc"><path d="M-19.772587673078068,-56.64843137025456A60,60,0,0,1,-1.1021821192326178e-14,-60L-6.429395695523604e-15,-35A35,35,0,0,0,-11.534009475962206,-33.044918299315164Z" style="fill: #41b883; stroke-width: 2px;" stroke="#2d2b55"></path></g></g></g></svg>