<svg xmlns="http://www.w3.org/2000/svg" width="340" height="200" viewBox="0 0 340 200"><style>* {
          font-family: 'Segoe UI', Ubuntu, "Helvetica Neue", Sans-Serif
        }</style><rect x="1" y="1" rx="5" ry="5" height="99%" width="99.41176470588235%" stroke="#1a1b27" stroke-width="1" fill="#1a1b27" stroke-opacity="1"></rect><text x="30" y="40" style="font-size: 22px; fill: #70a5fd;">Top Languages by Commit</text><g transform="translate(0,40)"><g transform="translate(40,0)"><rect y="18" width="14" height="14" fill="#89e051" stroke="#1a1b27" style="stroke-width: 1px;"></rect><rect y="43.2" width="14" height="14" fill="#f1e05a" stroke="#1a1b27" style="stroke-width: 1px;"></rect><rect y="68.4" width="14" height="14" fill="#555555" stroke="#1a1b27" style="stroke-width: 1px;"></rect><rect y="93.60000000000002" width="14" height="14" fill="#3572A5" stroke="#1a1b27" style="stroke-width: 1px;"></rect><rect y="118.80000000000001" width="14" height="14" fill="#663399" stroke="#1a1b27" style="stroke-width: 1px;"></rect><text x="16.8" y="30" style="fill: #38bdae; font-size: 14px;">Shell</text><text x="16.8" y="55.2" style="fill: #38bdae; font-size: 14px;">JavaScript</text><text x="16.8" y="80.4" style="fill: #38bdae; font-size: 14px;">C</text><text x="16.8" y="105.60000000000002" style="fill: #38bdae; font-size: 14px;">Python</text><text x="16.8" y="130.8" style="fill: #38bdae; font-size: 14px;">CSS</text></g><g transform="translate( 230, 80 )"><g class="arc"><path d="M3.67394039744206e-15,-60A60,60,0,0,1,48.608901799933506,35.173493795817635L28.355192716627876,20.51787138089362A35,35,0,0,0,2.1431318985078682e-15,-35Z" style="fill: #89e051; stroke-width: 2px;" stroke="#1a1b27"></path></g><g class="arc"><path d="M48.608901799933506,35.173493795817635A60,60,0,0,1,-14.876585456580655,58.12647593956693L-8.678008183005382,33.907110964747375A35,35,0,0,0,28.355192716627876,20.51787138089362Z" style="fill: #f1e05a; stroke-width: 2px;" stroke="#1a1b27"></path></g><g class="arc"><path d="M-14.876585456580655,58.12647593956693A60,60,0,0,1,-56.61934570682155,19.85572188895251L-33.02795166231257,11.582504435222297A35,35,0,0,0,-8.678008183005382,33.907110964747375Z" style="fill: #555555; stroke-width: 2px;" stroke="#1a1b27"></path></g><g class="arc"><path d="M-56.61934570682155,19.85572188895251A60,60,0,0,1,-48.60890179993353,-35.173493795817606L-28.35519271662789,-20.517871380893602A35,35,0,0,0,-33.02795166231257,11.582504435222297Z" style="fill: #3572A5; stroke-width: 2px;" stroke="#1a1b27"></path></g><g class="arc"><path d="M-48.60890179993353,-35.173493795817606A60,60,0,0,1,-1.1021821192326178e-14,-60L-6.429395695523604e-15,-35A35,35,0,0,0,-28.35519271662789,-20.517871380893602Z" style="fill: #663399; stroke-width: 2px;" stroke="#1a1b27"></path></g></g></g></svg>