<svg xmlns="http://www.w3.org/2000/svg" width="340" height="200" viewBox="0 0 340 200"><style>* {
          font-family: 'Segoe UI', Ubuntu, "Helvetica Neue", Sans-Serif
        }</style><rect x="1" y="1" rx="5" ry="5" height="99%" width="99.41176470588235%" stroke="#141321" stroke-width="1" fill="#141321" stroke-opacity="1"></rect><text x="30" y="40" style="font-size: 22px; fill: #ff0055;">Top Languages by Commit</text><g transform="translate(0,40)"><g transform="translate(40,0)"><rect y="18" width="14" height="14" fill="#f34b7d" stroke="#141321" style="stroke-width: 1px;"></rect><rect y="43.2" width="14" height="14" fill="#3178c6" stroke="#141321" style="stroke-width: 1px;"></rect><rect y="68.4" width="14" height="14" fill="#555555" stroke="#141321" style="stroke-width: 1px;"></rect><rect y="93.60000000000002" width="14" height="14" fill="#89e051" stroke="#141321" style="stroke-width: 1px;"></rect><rect y="118.80000000000001" width="14" height="14" fill="#A97BFF" stroke="#141321" style="stroke-width: 1px;"></rect><text x="16.8" y="30" style="fill: #03d8f3; font-size: 14px;">C++</text><text x="16.8" y="55.2" style="fill: #03d8f3; font-size: 14px;">TypeScript</text><text x="16.8" y="80.4" style="fill: #03d8f3; font-size: 14px;">C</text><text x="16.8" y="105.60000000000002" style="fill: #03d8f3; font-size: 14px;">Shell</text><text x="16.8" y="130.8" style="fill: #03d8f3; font-size: 14px;">Kotlin</text></g><g transform="translate( 230, 80 )"><g class="arc"><path d="M3.67394039744206e-15,-60A60,60,0,0,1,9.888731229611741,59.179498094090846L5.768426550606849,34.52137388821966A35,35,0,0,0,2.1431318985078682e-15,-35Z" style="fill: #f34b7d; stroke-width: 2px;" stroke="#141321"></path></g><g class="arc"><path d="M9.888731229611741,59.179498094090846A60,60,0,0,1,-58.70016107235626,-12.421396462533172L-34.24176062554115,-7.245814603144351A35,35,0,0,0,5.768426550606849,34.52137388821966Z" style="fill: #3178c6; stroke-width: 2px;" stroke="#141321"></path></g><g class="arc"><path d="M-58.70016107235626,-12.421396462533172A60,60,0,0,1,-39.036161795205544,-45.565097084265446L-22.771094380536567,-26.57963996582151A35,35,0,0,0,-34.24176062554115,-7.245814603144351Z" style="fill: #555555; stroke-width: 2px;" stroke="#141321"></path></g><g class="arc"><path d="M-39.036161795205544,-45.565097084265446A60,60,0,0,1,-10.012737357723948,-59.1586434141727L-5.840763458672303,-34.50920865826741A35,35,0,0,0,-22.771094380536567,-26.57963996582151Z" style="fill: #89e051; stroke-width: 2px;" stroke="#141321"></path></g><g class="arc"><path d="M-10.012737357723948,-59.1586434141727A60,60,0,0,1,4.226888398968133e-14,-60L2.4656848993980778e-14,-35A35,35,0,0,0,-5.840763458672303,-34.50920865826741Z" style="fill: #A97BFF; stroke-width: 2px;" stroke="#141321"></path></g></g></g></svg>