<svg xmlns="http://www.w3.org/2000/svg" width="340" height="200" viewBox="0 0 340 200"><style>* {
          font-family: 'Segoe UI', Ubuntu, "Helvetica Neue", Sans-Serif
        }</style><rect x="1" y="1" rx="5" ry="5" height="99%" width="99.41176470588235%" stroke="#000000" stroke-width="1" fill="#31353a" stroke-opacity="0"></rect><text x="30" y="40" style="font-size: 22px; fill: #19f9d899;">Top Languages by Commit</text><g transform="translate(0,40)"><g transform="translate(40,0)"><rect y="18" width="14" height="14" fill="#89e051" stroke="#31353a" style="stroke-width: 1px;"></rect><rect y="43.2" width="14" height="14" fill="#41b883" stroke="#31353a" style="stroke-width: 1px;"></rect><rect y="68.4" width="14" height="14" fill="#663399" stroke="#31353a" style="stroke-width: 1px;"></rect><rect y="93.60000000000002" width="14" height="14" fill="#f1e05a" stroke="#31353a" style="stroke-width: 1px;"></rect><rect y="118.80000000000001" width="14" height="14" fill="#427819" stroke="#31353a" style="stroke-width: 1px;"></rect><text x="16.8" y="30" style="fill: #ff75b5; font-size: 14px;">Shell</text><text x="16.8" y="55.2" style="fill: #ff75b5; font-size: 14px;">Vue</text><text x="16.8" y="80.4" style="fill: #ff75b5; font-size: 14px;">CSS</text><text x="16.8" y="105.60000000000002" style="fill: #ff75b5; font-size: 14px;">JavaScript</text><text x="16.8" y="130.8" style="fill: #ff75b5; font-size: 14px;">Makefile</text></g><g transform="translate( 230, 80 )"><g class="arc"><path d="M3.67394039744206e-15,-60A60,60,0,0,1,58.672268440409354,12.55248644916793L34.22548992357213,7.322283762014626A35,35,0,0,0,2.1431318985078682e-15,-35Z" style="fill: #89e051; stroke-width: 2px;" stroke="#31353a"></path></g><g class="arc"><path d="M58.672268440409354,12.55248644916793A60,60,0,0,1,-6.192604013427645,59.67957486052393L-3.612352341166126,34.81308533530563A35,35,0,0,0,34.22548992357213,7.322283762014626Z" style="fill: #41b883; stroke-width: 2px;" stroke="#31353a"></path></g><g class="arc"><path d="M-6.192604013427645,59.67957486052393A60,60,0,0,1,-56.28115017445825,20.795002645830056L-32.83067093510064,12.130418210067532A35,35,0,0,0,-3.612352341166126,34.81308533530563Z" style="fill: #663399; stroke-width: 2px;" stroke="#31353a"></path></g><g class="arc"><path d="M-56.28115017445825,20.795002645830056A60,60,0,0,1,-44.16044137443139,-40.61841229806266L-25.760257468418313,-23.694073840536554A35,35,0,0,0,-32.83067093510064,12.130418210067532Z" style="fill: #f1e05a; stroke-width: 2px;" stroke="#31353a"></path></g><g class="arc"><path d="M-44.16044137443139,-40.61841229806266A60,60,0,0,1,4.226888398968133e-14,-60L2.4656848993980778e-14,-35A35,35,0,0,0,-25.760257468418313,-23.694073840536554Z" style="fill: #427819; stroke-width: 2px;" stroke="#31353a"></path></g></g></g></svg>