<svg xmlns="http://www.w3.org/2000/svg" width="340" height="200" viewBox="0 0 340 200"><style>* {
          font-family: 'Segoe UI', Ubuntu, "Helvetica Neue", Sans-Serif
        }</style><rect x="1" y="1" rx="5" ry="5" height="99%" width="99.41176470588235%" stroke="#000000" stroke-width="1" fill="#31353a" stroke-opacity="0"></rect><text x="30" y="40" style="font-size: 22px; fill: #19f9d899;">Top Languages by Commit</text><g transform="translate(0,40)"><g transform="translate(40,0)"><rect y="18" width="14" height="14" fill="#89e051" stroke="#31353a" style="stroke-width: 1px;"></rect><rect y="43.2" width="14" height="14" fill="#f1e05a" stroke="#31353a" style="stroke-width: 1px;"></rect><rect y="68.4" width="14" height="14" fill="#555555" stroke="#31353a" style="stroke-width: 1px;"></rect><rect y="93.60000000000002" width="14" height="14" fill="#663399" stroke="#31353a" style="stroke-width: 1px;"></rect><rect y="118.80000000000001" width="14" height="14" fill="#3572A5" stroke="#31353a" style="stroke-width: 1px;"></rect><text x="16.8" y="30" style="fill: #ff75b5; font-size: 14px;">Shell</text><text x="16.8" y="55.2" style="fill: #ff75b5; font-size: 14px;">JavaScript</text><text x="16.8" y="80.4" style="fill: #ff75b5; font-size: 14px;">C</text><text x="16.8" y="105.60000000000002" style="fill: #ff75b5; font-size: 14px;">CSS</text><text x="16.8" y="130.8" style="fill: #ff75b5; font-size: 14px;">Python</text></g><g transform="translate( 230, 80 )"><g class="arc"><path d="M3.67394039744206e-15,-60A60,60,0,0,1,56.26512792882483,20.838315170689214L32.82132462514782,12.155683849568709A35,35,0,0,0,2.1431318985078682e-15,-35Z" style="fill: #89e051; stroke-width: 2px;" stroke="#31353a"></path></g><g class="arc"><path d="M56.26512792882483,20.838315170689214A60,60,0,0,1,-33.43946778734618,49.817687562742584L-19.506356209285272,29.060317744933172A35,35,0,0,0,32.82132462514782,12.155683849568709Z" style="fill: #f1e05a; stroke-width: 2px;" stroke="#31353a"></path></g><g class="arc"><path d="M-33.43946778734618,49.817687562742584A60,60,0,0,1,-59.58112424555602,7.077403029050789L-34.75565580990768,4.128485100279627A35,35,0,0,0,-19.506356209285272,29.060317744933172Z" style="fill: #555555; stroke-width: 2px;" stroke="#31353a"></path></g><g class="arc"><path d="M-59.58112424555602,7.077403029050789A60,60,0,0,1,-44.85891317086857,-39.8456761660343L-26.167699349673335,-23.243311096853343A35,35,0,0,0,-34.75565580990768,4.128485100279627Z" style="fill: #663399; stroke-width: 2px;" stroke="#31353a"></path></g><g class="arc"><path d="M-44.85891317086857,-39.8456761660343A60,60,0,0,1,-6.431252637433369e-14,-60L-3.7515640385027985e-14,-35A35,35,0,0,0,-26.167699349673335,-23.243311096853343Z" style="fill: #3572A5; stroke-width: 2px;" stroke="#31353a"></path></g></g></g></svg>