<svg xmlns="http://www.w3.org/2000/svg" width="340" height="200" viewBox="0 0 340 200"><style>* {
          font-family: 'Segoe UI', Ubuntu, "Helvetica Neue", Sans-Serif
        }</style><rect x="1" y="1" rx="5" ry="5" height="99%" width="99.41176470588235%" stroke="#000000" stroke-width="1" fill="#291b3e" stroke-opacity="0"></rect><text x="30" y="40" style="font-size: 22px; fill: #ff64da;">Top Languages by Commit</text><g transform="translate(0,40)"><g transform="translate(40,0)"><rect y="18" width="14" height="14" fill="#89e051" stroke="#291b3e" style="stroke-width: 1px;"></rect><rect y="43.2" width="14" height="14" fill="#41b883" stroke="#291b3e" style="stroke-width: 1px;"></rect><rect y="68.4" width="14" height="14" fill="#f1e05a" stroke="#291b3e" style="stroke-width: 1px;"></rect><rect y="93.60000000000002" width="14" height="14" fill="#555555" stroke="#291b3e" style="stroke-width: 1px;"></rect><rect y="118.80000000000001" width="14" height="14" fill="#663399" stroke="#291b3e" style="stroke-width: 1px;"></rect><text x="16.8" y="30" style="fill: #ffffff; font-size: 14px;">Shell</text><text x="16.8" y="55.2" style="fill: #ffffff; font-size: 14px;">Vue</text><text x="16.8" y="80.4" style="fill: #ffffff; font-size: 14px;">JavaScript</text><text x="16.8" y="105.60000000000002" style="fill: #ffffff; font-size: 14px;">C</text><text x="16.8" y="130.8" style="fill: #ffffff; font-size: 14px;">CSS</text></g><g transform="translate( 230, 80 )"><g class="arc"><path d="M3.67394039744206e-15,-60A60,60,0,0,1,52.143737655662186,29.682160017382117L30.417180299136277,17.3145933434729A35,35,0,0,0,2.1431318985078682e-15,-35Z" style="fill: #89e051; stroke-width: 2px;" stroke="#291b3e"></path></g><g class="arc"><path d="M52.143737655662186,29.682160017382117A60,60,0,0,1,-9.304641489859423,59.2741397807272L-5.42770753575133,34.57658153875753A35,35,0,0,0,30.417180299136277,17.3145933434729Z" style="fill: #41b883; stroke-width: 2px;" stroke="#291b3e"></path></g><g class="arc"><path d="M-9.304641489859423,59.2741397807272A60,60,0,0,1,-57.67401838612318,16.544110831263346L-33.64317739190519,9.650731318236952A35,35,0,0,0,-5.42770753575133,34.57658153875753Z" style="fill: #f1e05a; stroke-width: 2px;" stroke="#291b3e"></path></g><g class="arc"><path d="M-57.67401838612318,16.544110831263346A60,60,0,0,1,-47.587257589668724,-36.54384921015459L-27.759233593973423,-21.317245372590175A35,35,0,0,0,-33.64317739190519,9.650731318236952Z" style="fill: #555555; stroke-width: 2px;" stroke="#291b3e"></path></g><g class="arc"><path d="M-47.587257589668724,-36.54384921015459A60,60,0,0,1,-6.431252637433369e-14,-60L-3.7515640385027985e-14,-35A35,35,0,0,0,-27.759233593973423,-21.317245372590175Z" style="fill: #663399; stroke-width: 2px;" stroke="#291b3e"></path></g></g></g></svg>