<svg xmlns="http://www.w3.org/2000/svg" width="340" height="200" viewBox="0 0 340 200"><style>* {
          font-family: 'Segoe UI', Ubuntu, "Helvetica Neue", Sans-Serif
        }</style><rect x="1" y="1" rx="5" ry="5" height="99%" width="99.41176470588235%" stroke="#282828" stroke-width="1" fill="#282828" stroke-opacity="1"></rect><text x="30" y="40" style="font-size: 22px; fill: #fabd2f;">Top Languages by Commit</text><g transform="translate(0,40)"><g transform="translate(40,0)"><rect y="18" width="14" height="14" fill="#89e051" stroke="#282828" style="stroke-width: 1px;"></rect><rect y="43.2" width="14" height="14" fill="#41b883" stroke="#282828" style="stroke-width: 1px;"></rect><rect y="68.4" width="14" height="14" fill="#663399" stroke="#282828" style="stroke-width: 1px;"></rect><rect y="93.60000000000002" width="14" height="14" fill="#f1e05a" stroke="#282828" style="stroke-width: 1px;"></rect><rect y="118.80000000000001" width="14" height="14" fill="#384d54" stroke="#282828" style="stroke-width: 1px;"></rect><text x="16.8" y="30" style="fill: #8ec07c; font-size: 14px;">Shell</text><text x="16.8" y="55.2" style="fill: #8ec07c; font-size: 14px;">Vue</text><text x="16.8" y="80.4" style="fill: #8ec07c; font-size: 14px;">CSS</text><text x="16.8" y="105.60000000000002" style="fill: #8ec07c; font-size: 14px;">JavaScript</text><text x="16.8" y="130.8" style="fill: #8ec07c; font-size: 14px;">Dockerfile</text></g><g transform="translate( 230, 80 )"><g class="arc"><path d="M3.67394039744206e-15,-60A60,60,0,0,1,59.46257538209008,8.012623099163875L34.68650230621921,4.674030141178927A35,35,0,0,0,2.1431318985078682e-15,-35Z" style="fill: #89e051; stroke-width: 2px;" stroke="#282828"></path></g><g class="arc"><path d="M59.46257538209008,8.012623099163875A60,60,0,0,1,-3.4076458020503613,59.903154759058964L-1.9877933845293774,34.943506942784396A35,35,0,0,0,34.68650230621921,4.674030141178927Z" style="fill: #41b883; stroke-width: 2px;" stroke="#282828"></path></g><g class="arc"><path d="M-3.4076458020503613,59.903154759058964A60,60,0,0,1,-55.77582442117236,22.114642437501736L-32.53589757901721,12.90020808854268A35,35,0,0,0,-1.9877933845293774,34.943506942784396Z" style="fill: #663399; stroke-width: 2px;" stroke="#282828"></path></g><g class="arc"><path d="M-55.77582442117236,22.114642437501736A60,60,0,0,1,-44.19548509163064,-40.580279662854146L-25.78069963678454,-23.671829803331587A35,35,0,0,0,-32.53589757901721,12.90020808854268Z" style="fill: #f1e05a; stroke-width: 2px;" stroke="#282828"></path></g><g class="arc"><path d="M-44.19548509163064,-40.580279662854146A60,60,0,0,1,-1.1021821192326178e-14,-60L-6.429395695523604e-15,-35A35,35,0,0,0,-25.78069963678454,-23.671829803331587Z" style="fill: #384d54; stroke-width: 2px;" stroke="#282828"></path></g></g></g></svg>