<svg xmlns="http://www.w3.org/2000/svg" width="340" height="200" viewBox="0 0 340 200"><style>* {
          font-family: 'Segoe UI', Ubuntu, "Helvetica Neue", Sans-Serif
        }</style><rect x="1" y="1" rx="5" ry="5" height="99%" width="99.41176470588235%" stroke="#e4e2e2" stroke-width="1" fill="#ffffff" stroke-opacity="1"></rect><text x="30" y="40" style="font-size: 22px; fill: #0366d6;">Top Languages by Commit</text><g transform="translate(0,40)"><g transform="translate(40,0)"><rect y="18" width="14" height="14" fill="#89e051" stroke="#ffffff" style="stroke-width: 1px;"></rect><rect y="43.2" width="14" height="14" fill="#f1e05a" stroke="#ffffff" style="stroke-width: 1px;"></rect><rect y="68.4" width="14" height="14" fill="#555555" stroke="#ffffff" style="stroke-width: 1px;"></rect><rect y="93.60000000000002" width="14" height="14" fill="#3572A5" stroke="#ffffff" style="stroke-width: 1px;"></rect><rect y="118.80000000000001" width="14" height="14" fill="#663399" stroke="#ffffff" style="stroke-width: 1px;"></rect><text x="16.8" y="30" style="fill: #586069; font-size: 14px;">Shell</text><text x="16.8" y="55.2" style="fill: #586069; font-size: 14px;">JavaScript</text><text x="16.8" y="80.4" style="fill: #586069; font-size: 14px;">C</text><text x="16.8" y="105.60000000000002" style="fill: #586069; font-size: 14px;">Python</text><text x="16.8" y="130.8" style="fill: #586069; font-size: 14px;">CSS</text></g><g transform="translate( 230, 80 )"><g class="arc"><path d="M3.67394039744206e-15,-60A60,60,0,0,1,47.37689069453536,36.81616802599163L27.636519571812293,21.476098015161785A35,35,0,0,0,2.1431318985078682e-15,-35Z" style="fill: #89e051; stroke-width: 2px;" stroke="#ffffff"></path></g><g class="arc"><path d="M47.37689069453536,36.81616802599163A60,60,0,0,1,-17.92563647585505,57.25968526752042L-10.456621277582114,33.40148307272025A35,35,0,0,0,27.636519571812293,21.476098015161785Z" style="fill: #f1e05a; stroke-width: 2px;" stroke="#ffffff"></path></g><g class="arc"><path d="M-17.92563647585505,57.25968526752042A60,60,0,0,1,-57.84000279714214,15.954124119693601L-33.74000163166625,9.3065724031546A35,35,0,0,0,-10.456621277582114,33.40148307272025Z" style="fill: #555555; stroke-width: 2px;" stroke="#ffffff"></path></g><g class="arc"><path d="M-57.84000279714214,15.954124119693601A60,60,0,0,1,-45.51931752395545,-39.089534816282L-26.552935222307347,-22.802228642831167A35,35,0,0,0,-33.74000163166625,9.3065724031546Z" style="fill: #3572A5; stroke-width: 2px;" stroke="#ffffff"></path></g><g class="arc"><path d="M-45.51931752395545,-39.089534816282A60,60,0,0,1,-1.1021821192326178e-14,-60L-6.429395695523604e-15,-35A35,35,0,0,0,-26.552935222307347,-22.802228642831167Z" style="fill: #663399; stroke-width: 2px;" stroke="#ffffff"></path></g></g></g></svg>