<svg xmlns="http://www.w3.org/2000/svg" width="340" height="200" viewBox="0 0 340 200"><style>* {
          font-family: 'Segoe UI', Ubuntu, "Helvetica Neue", Sans-Serif
        }</style><rect x="1" y="1" rx="5" ry="5" height="99%" width="99.41176470588235%" stroke="#000000" stroke-width="1" fill="#011627" stroke-opacity="0"></rect><text x="30" y="40" style="font-size: 22px; fill: #c792ea;">Top Languages by Commit</text><g transform="translate(0,40)"><g transform="translate(40,0)"><rect y="18" width="14" height="14" fill="#89e051" stroke="#011627" style="stroke-width: 1px;"></rect><rect y="43.2" width="14" height="14" fill="#f1e05a" stroke="#011627" style="stroke-width: 1px;"></rect><rect y="68.4" width="14" height="14" fill="#555555" stroke="#011627" style="stroke-width: 1px;"></rect><rect y="93.60000000000002" width="14" height="14" fill="#663399" stroke="#011627" style="stroke-width: 1px;"></rect><rect y="118.80000000000001" width="14" height="14" fill="#3572A5" stroke="#011627" style="stroke-width: 1px;"></rect><text x="16.8" y="30" style="fill: #7fdbca; font-size: 14px;">Shell</text><text x="16.8" y="55.2" style="fill: #7fdbca; font-size: 14px;">JavaScript</text><text x="16.8" y="80.4" style="fill: #7fdbca; font-size: 14px;">C</text><text x="16.8" y="105.60000000000002" style="fill: #7fdbca; font-size: 14px;">CSS</text><text x="16.8" y="130.8" style="fill: #7fdbca; font-size: 14px;">Python</text></g><g transform="translate( 230, 80 )"><g class="arc"><path d="M3.67394039744206e-15,-60A60,60,0,0,1,53.95872781027315,26.238439227531323L31.475924555992673,15.305756216059939A35,35,0,0,0,2.1431318985078682e-15,-35Z" style="fill: #89e051; stroke-width: 2px;" stroke="#011627"></path></g><g class="arc"><path d="M53.95872781027315,26.238439227531323A60,60,0,0,1,-26.716259434321902,53.72375156146494L-15.584484670021109,31.338855077521213A35,35,0,0,0,31.475924555992673,15.305756216059939Z" style="fill: #f1e05a; stroke-width: 2px;" stroke="#011627"></path></g><g class="arc"><path d="M-26.716259434321902,53.72375156146494A60,60,0,0,1,-58.754448194207086,12.162023573165595L-34.273428113287466,7.094513751013263A35,35,0,0,0,-15.584484670021109,31.338855077521213Z" style="fill: #555555; stroke-width: 2px;" stroke="#011627"></path></g><g class="arc"><path d="M-58.754448194207086,12.162023573165595A60,60,0,0,1,-46.52806365189687,-37.88323234367724L-27.14137046360651,-22.09855220047839A35,35,0,0,0,-34.273428113287466,7.094513751013263Z" style="fill: #663399; stroke-width: 2px;" stroke="#011627"></path></g><g class="arc"><path d="M-46.52806365189687,-37.88323234367724A60,60,0,0,1,4.226888398968133e-14,-60L2.4656848993980778e-14,-35A35,35,0,0,0,-27.14137046360651,-22.09855220047839Z" style="fill: #3572A5; stroke-width: 2px;" stroke="#011627"></path></g></g></g></svg>